<?xml version="1.0" encoding="UTF-8" standalone="no"?>
<!DOCTYPE svg PUBLIC "-//W3C//DTD SVG 1.1//EN" "http://www.w3.org/Graphics/SVG/1.1/DTD/svg11.dtd">
<svg width="100%" height="100%" viewBox="0 0 1280 314" version="1.1" xmlns="http://www.w3.org/2000/svg" xmlns:xlink="http://www.w3.org/1999/xlink" xml:space="preserve" xmlns:serif="http://www.serif.com/" style="fill-rule:evenodd;clip-rule:evenodd;stroke-linejoin:round;stroke-miterlimit:2;">
    <g transform="matrix(8.39901,0,0,8.39901,-4735.36,-2866.75)">
        <g transform="matrix(1,0,0,1,563.42,340.961)">
            <path d="M15.956,0.551L15.956,18.035L13.844,18.035C13.532,18.035 13.268,17.987 13.052,17.891C12.844,17.787 12.636,17.611 12.428,17.363L4.184,6.935C4.216,7.247 4.236,7.551 4.244,7.847C4.26,8.135 4.268,8.407 4.268,8.663L4.268,18.035L0.692,18.035L0.692,0.551L2.828,0.551C3.004,0.551 3.152,0.559 3.272,0.575C3.392,0.591 3.5,0.623 3.596,0.671C3.692,0.711 3.784,0.771 3.872,0.851C3.96,0.931 4.06,1.039 4.172,1.175L12.488,11.675C12.448,11.339 12.42,11.015 12.404,10.703C12.388,10.383 12.38,10.083 12.38,9.803L12.38,0.551L15.956,0.551Z" style="fill:rgb(221,161,94);fill-rule:nonzero;"/>
        </g>
        <g transform="matrix(1,0,0,1,563.42,340.961)">
            <path d="M36.508,9.287C36.508,10.551 36.288,11.727 35.848,12.815C35.416,13.903 34.804,14.851 34.012,15.659C33.22,16.459 32.264,17.087 31.144,17.543C30.032,17.999 28.796,18.227 27.436,18.227C26.076,18.227 24.836,17.999 23.716,17.543C22.596,17.087 21.636,16.459 20.836,15.659C20.044,14.851 19.428,13.903 18.988,12.815C18.556,11.727 18.34,10.551 18.34,9.287C18.34,8.023 18.556,6.847 18.988,5.759C19.428,4.671 20.044,3.727 20.836,2.927C21.636,2.127 22.596,1.499 23.716,1.043C24.836,0.587 26.076,0.359 27.436,0.359C28.796,0.359 30.032,0.591 31.144,1.055C32.264,1.511 33.22,2.139 34.012,2.939C34.804,3.739 35.416,4.683 35.848,5.771C36.288,6.859 36.508,8.031 36.508,9.287ZM32.356,9.287C32.356,8.423 32.244,7.647 32.02,6.959C31.796,6.263 31.472,5.675 31.048,5.195C30.632,4.715 30.12,4.347 29.512,4.091C28.904,3.835 28.212,3.707 27.436,3.707C26.652,3.707 25.952,3.835 25.336,4.091C24.728,4.347 24.212,4.715 23.788,5.195C23.372,5.675 23.052,6.263 22.828,6.959C22.604,7.647 22.492,8.423 22.492,9.287C22.492,10.159 22.604,10.943 22.828,11.639C23.052,12.327 23.372,12.911 23.788,13.391C24.212,13.871 24.728,14.239 25.336,14.495C25.952,14.743 26.652,14.867 27.436,14.867C28.212,14.867 28.904,14.743 29.512,14.495C30.12,14.239 30.632,13.871 31.048,13.391C31.472,12.911 31.796,12.327 32.02,11.639C32.244,10.943 32.356,10.159 32.356,9.287Z" style="fill:rgb(221,161,94);fill-rule:nonzero;"/>
        </g>
        <g transform="matrix(1,0,0,1,563.42,340.961)">
            <path d="M44.583,8.771C45.135,8.771 45.603,8.703 45.987,8.567C46.379,8.423 46.699,8.227 46.947,7.979C47.195,7.731 47.375,7.443 47.487,7.115C47.599,6.779 47.655,6.419 47.655,6.035C47.655,5.267 47.403,4.667 46.899,4.235C46.403,3.803 45.631,3.587 44.583,3.587L42.951,3.587L42.951,8.771L44.583,8.771ZM53.199,18.035L49.527,18.035C48.847,18.035 48.359,17.779 48.063,17.267L45.159,12.191C45.023,11.975 44.871,11.819 44.703,11.723C44.535,11.619 44.295,11.567 43.983,11.567L42.951,11.567L42.951,18.035L38.895,18.035L38.895,0.551L44.583,0.551C45.847,0.551 46.923,0.683 47.811,0.947C48.707,1.203 49.435,1.563 49.995,2.027C50.563,2.491 50.975,3.039 51.231,3.671C51.487,4.303 51.615,4.991 51.615,5.735C51.615,6.303 51.539,6.839 51.387,7.343C51.235,7.847 51.011,8.315 50.715,8.747C50.419,9.171 50.051,9.551 49.611,9.887C49.179,10.223 48.679,10.499 48.111,10.715C48.375,10.851 48.623,11.023 48.855,11.231C49.087,11.431 49.295,11.671 49.479,11.951L53.199,18.035Z" style="fill:rgb(221,161,94);fill-rule:nonzero;"/>
        </g>
        <g transform="matrix(1,0,0,1,563.42,340.961)">
            <path d="M66.881,3.767L61.961,3.767L61.961,18.035L57.905,18.035L57.905,3.767L52.985,3.767L52.985,0.551L66.881,0.551L66.881,3.767Z" style="fill:rgb(221,161,94);fill-rule:nonzero;"/>
        </g>
        <g transform="matrix(1,0,0,1,563.42,340.961)">
            <path d="M84.206,0.551L84.206,18.035L80.126,18.035L80.126,10.643L73.022,10.643L73.022,18.035L68.942,18.035L68.942,0.551L73.022,0.551L73.022,7.859L80.126,7.859L80.126,0.551L84.206,0.551Z" style="fill:rgb(221,161,94);fill-rule:nonzero;"/>
        </g>
        <g transform="matrix(1,0,0,1,563.42,340.961)">
            <path d="M111.418,0.551L106.018,18.035L102.346,18.035L99.058,7.199C98.994,7.031 98.934,6.847 98.878,6.647C98.822,6.439 98.766,6.223 98.71,5.999C98.654,6.223 98.598,6.439 98.542,6.647C98.486,6.847 98.426,7.031 98.362,7.199L95.026,18.035L91.354,18.035L85.954,0.551L89.362,0.551C89.714,0.551 90.006,0.631 90.238,0.791C90.478,0.951 90.634,1.163 90.706,1.427L93.106,10.547C93.178,10.835 93.25,11.151 93.322,11.495C93.394,11.831 93.466,12.183 93.538,12.551C93.682,11.799 93.858,11.131 94.066,10.547L96.898,1.427C96.97,1.203 97.122,1.003 97.354,0.827C97.594,0.643 97.882,0.551 98.218,0.551L99.418,0.551C99.77,0.551 100.054,0.635 100.27,0.803C100.486,0.963 100.65,1.171 100.762,1.427L103.57,10.547C103.778,11.107 103.954,11.743 104.098,12.455C104.162,12.095 104.226,11.759 104.29,11.447C104.362,11.127 104.434,10.827 104.506,10.547L106.906,1.427C106.97,1.195 107.122,0.991 107.362,0.815C107.602,0.639 107.89,0.551 108.226,0.551L111.418,0.551Z" style="fill:rgb(221,161,94);fill-rule:nonzero;"/>
        </g>
        <g transform="matrix(1,0,0,1,563.42,340.961)">
            <path d="M117.249,3.671L117.249,7.751L122.745,7.751L122.745,10.751L117.249,10.751L117.249,14.915L124.425,14.915L124.425,18.035L113.169,18.035L113.169,0.551L124.425,0.551L124.425,3.671L117.249,3.671Z" style="fill:rgb(221,161,94);fill-rule:nonzero;"/>
        </g>
        <g transform="matrix(1,0,0,1,563.42,340.961)">
            <path d="M136.586,4.103C136.466,4.295 136.338,4.439 136.202,4.535C136.074,4.631 135.906,4.679 135.698,4.679C135.514,4.679 135.314,4.623 135.098,4.511C134.89,4.391 134.65,4.259 134.378,4.115C134.114,3.971 133.81,3.843 133.466,3.731C133.122,3.611 132.73,3.551 132.29,3.551C131.53,3.551 130.962,3.715 130.586,4.043C130.218,4.363 130.034,4.799 130.034,5.351C130.034,5.703 130.146,5.995 130.37,6.227C130.594,6.459 130.886,6.659 131.246,6.827C131.614,6.995 132.03,7.151 132.494,7.295C132.966,7.431 133.446,7.587 133.934,7.763C134.422,7.931 134.898,8.131 135.362,8.363C135.834,8.595 136.25,8.891 136.61,9.251C136.978,9.611 137.274,10.051 137.498,10.571C137.722,11.083 137.834,11.703 137.834,12.431C137.834,13.239 137.694,13.995 137.414,14.699C137.134,15.403 136.726,16.019 136.19,16.547C135.662,17.067 135.006,17.479 134.222,17.783C133.446,18.079 132.562,18.227 131.57,18.227C131.026,18.227 130.47,18.171 129.902,18.059C129.342,17.947 128.798,17.791 128.27,17.591C127.742,17.383 127.246,17.139 126.782,16.859C126.318,16.579 125.914,16.267 125.57,15.923L126.77,14.027C126.866,13.891 126.99,13.779 127.142,13.691C127.302,13.595 127.474,13.547 127.658,13.547C127.898,13.547 128.138,13.623 128.378,13.775C128.626,13.927 128.902,14.095 129.206,14.279C129.518,14.463 129.874,14.631 130.274,14.783C130.674,14.935 131.146,15.011 131.69,15.011C132.426,15.011 132.998,14.851 133.406,14.531C133.814,14.203 134.018,13.687 134.018,12.983C134.018,12.575 133.906,12.243 133.682,11.987C133.458,11.731 133.162,11.519 132.794,11.351C132.434,11.183 132.022,11.035 131.558,10.907C131.094,10.779 130.618,10.639 130.13,10.487C129.642,10.327 129.166,10.135 128.702,9.911C128.238,9.679 127.822,9.379 127.454,9.011C127.094,8.635 126.802,8.171 126.578,7.619C126.354,7.059 126.242,6.371 126.242,5.555C126.242,4.899 126.374,4.259 126.638,3.635C126.902,3.011 127.29,2.455 127.802,1.967C128.314,1.479 128.942,1.091 129.686,0.803C130.43,0.507 131.282,0.359 132.242,0.359C132.778,0.359 133.298,0.403 133.802,0.491C134.314,0.571 134.798,0.695 135.254,0.863C135.71,1.023 136.134,1.219 136.526,1.451C136.926,1.675 137.282,1.931 137.594,2.219L136.586,4.103Z" style="fill:rgb(221,161,94);fill-rule:nonzero;"/>
        </g>
        <g transform="matrix(1,0,0,1,563.42,340.961)">
            <path d="M152.779,3.767L147.859,3.767L147.859,18.035L143.803,18.035L143.803,3.767L138.883,3.767L138.883,0.551L152.779,0.551L152.779,3.767Z" style="fill:rgb(221,161,94);fill-rule:nonzero;"/>
        </g>
        <g transform="matrix(1,0,0,1,563.42,340.961)">
            <path d="M12.294,34.062C12.095,34.859 11.727,35.534 11.19,36.086C10.653,36.623 9.994,37.029 9.212,37.305C8.43,37.581 7.564,37.719 6.613,37.719C5.371,37.719 4.282,37.451 3.347,36.914C2.412,36.377 1.683,35.618 1.162,34.637C0.641,33.64 0.38,32.46 0.38,31.095C0.38,29.73 0.641,28.557 1.162,27.576C1.683,26.579 2.412,25.813 3.347,25.276C4.298,24.739 5.409,24.471 6.682,24.471C7.602,24.471 8.422,24.601 9.143,24.862C9.864,25.123 10.469,25.514 10.96,26.035C11.466,26.541 11.834,27.185 12.064,27.967L10.316,28.749C10.086,27.829 9.68,27.154 9.097,26.725C8.53,26.28 7.709,26.058 6.636,26.058C5.762,26.058 4.988,26.257 4.313,26.656C3.654,27.055 3.14,27.63 2.772,28.381C2.404,29.132 2.22,30.037 2.22,31.095C2.22,32.153 2.404,33.058 2.772,33.809C3.155,34.56 3.669,35.135 4.313,35.534C4.972,35.933 5.716,36.132 6.544,36.132C7.74,36.132 8.66,35.91 9.304,35.465C9.948,35.02 10.354,34.353 10.523,33.464L12.294,34.062Z" style="fill:rgb(221,161,94);fill-rule:nonzero;"/>
        </g>
        <g transform="matrix(1,0,0,1,563.42,340.961)">
            <path d="M30.329,24.655L32.169,24.655L32.169,37.535L30.329,37.535L30.329,31.808L23.13,31.808L23.13,37.535L21.29,37.535L21.29,24.655L23.13,24.655L23.13,30.221L30.329,30.221L30.329,24.655Z" style="fill:rgb(221,161,94);fill-rule:nonzero;"/>
        </g>
        <g transform="matrix(1,0,0,1,563.42,340.961)">
            <path d="M40.616,37.535L45.837,24.655L48.022,24.655L53.243,37.535L51.288,37.535L47.562,27.99L46.941,26.288L46.918,26.288L46.297,27.99L42.571,37.535L40.616,37.535ZM43.284,34.016L43.284,32.429L50.575,32.429L50.575,34.016L43.284,34.016Z" style="fill:rgb(221,161,94);fill-rule:nonzero;"/>
        </g>
        <g transform="matrix(1,0,0,1,563.42,340.961)">
            <path d="M61.928,37.535L61.928,24.655L67.287,24.655C68.697,24.655 69.824,25 70.668,25.69C71.511,26.365 71.933,27.292 71.933,28.473C71.933,29.669 71.511,30.604 70.668,31.279C69.824,31.954 68.697,32.291 67.287,32.291L63.768,32.291L63.768,37.535L61.928,37.535ZM70.599,37.535L66.735,31.877L68.299,31.095L72.715,37.535L70.599,37.535ZM63.768,30.727L67.241,30.727C68.191,30.727 68.904,30.543 69.38,30.175C69.855,29.807 70.093,29.247 70.093,28.496C70.093,27.745 69.855,27.185 69.38,26.817C68.904,26.434 68.191,26.242 67.241,26.242L63.768,26.242L63.768,30.727Z" style="fill:rgb(221,161,94);fill-rule:nonzero;"/>
        </g>
        <g transform="matrix(1,0,0,1,563.42,340.961)">
            <path d="M86.398,25.368L86.398,37.535L84.558,37.535L84.558,25.368L86.398,25.368ZM91.113,24.655L91.113,26.242L79.82,26.242L79.82,24.655L91.113,24.655Z" style="fill:rgb(221,161,94);fill-rule:nonzero;"/>
        </g>
        <g transform="matrix(1,0,0,1,563.42,340.961)">
            <path d="M99.96,37.535L99.96,24.655L109.62,24.655L109.62,26.242L101.8,26.242L101.8,30.221L107.918,30.221L107.918,31.808L101.8,31.808L101.8,35.948L109.919,35.948L109.919,37.535L99.96,37.535Z" style="fill:rgb(221,161,94);fill-rule:nonzero;"/>
        </g>
        <g transform="matrix(1,0,0,1,563.42,340.961)">
            <path d="M119.122,37.535L119.122,24.655L124.481,24.655C125.892,24.655 127.019,25 127.862,25.69C128.705,26.365 129.127,27.292 129.127,28.473C129.127,29.669 128.705,30.604 127.862,31.279C127.019,31.954 125.892,32.291 124.481,32.291L120.962,32.291L120.962,37.535L119.122,37.535ZM127.793,37.535L123.929,31.877L125.493,31.095L129.909,37.535L127.793,37.535ZM120.962,30.727L124.435,30.727C125.386,30.727 126.099,30.543 126.574,30.175C127.049,29.807 127.287,29.247 127.287,28.496C127.287,27.745 127.049,27.185 126.574,26.817C126.099,26.434 125.386,26.242 124.435,26.242L120.962,26.242L120.962,30.727Z" style="fill:rgb(221,161,94);fill-rule:nonzero;"/>
        </g>
        <g transform="matrix(1,0,0,1,563.42,340.961)">
            <path d="M143.558,37.719C142.086,37.719 140.875,37.466 139.924,36.96C138.974,36.454 138.253,35.802 137.762,35.005L139.142,33.74C139.495,34.491 140.055,35.082 140.821,35.511C141.588,35.925 142.531,36.132 143.65,36.132C144.356,36.132 144.954,36.063 145.444,35.925C145.95,35.772 146.334,35.557 146.594,35.281C146.87,34.99 147.008,34.629 147.008,34.2C147.008,33.847 146.909,33.548 146.709,33.303C146.525,33.058 146.265,32.851 145.927,32.682C145.605,32.513 145.23,32.391 144.8,32.314L141.994,31.739C141.335,31.601 140.722,31.409 140.154,31.164C139.587,30.919 139.127,30.574 138.774,30.129C138.437,29.669 138.268,29.071 138.268,28.335C138.268,27.63 138.475,26.986 138.889,26.403C139.303,25.82 139.894,25.353 140.66,25C141.442,24.647 142.37,24.471 143.443,24.471C144.287,24.471 145.038,24.571 145.697,24.77C146.357,24.954 146.939,25.245 147.445,25.644C147.951,26.043 148.388,26.541 148.756,27.139L147.376,28.381C147.1,27.829 146.778,27.384 146.41,27.047C146.058,26.694 145.636,26.441 145.145,26.288C144.67,26.135 144.095,26.058 143.42,26.058C142.378,26.058 141.565,26.273 140.982,26.702C140.4,27.131 140.108,27.637 140.108,28.22C140.108,28.588 140.2,28.887 140.384,29.117C140.584,29.347 140.852,29.539 141.189,29.692C141.542,29.83 141.933,29.945 142.362,30.037L145.352,30.658C145.981,30.781 146.556,30.972 147.077,31.233C147.614,31.494 148.043,31.846 148.365,32.291C148.687,32.72 148.848,33.28 148.848,33.97C148.848,34.737 148.626,35.404 148.181,35.971C147.737,36.538 147.116,36.975 146.318,37.282C145.536,37.573 144.616,37.719 143.558,37.719Z" style="fill:rgb(221,161,94);fill-rule:nonzero;"/>
        </g>
    </g>
</svg>
